<svg width="390" height="844" viewBox="0 0 390 844" fill="none" xmlns="http://www.w3.org/2000/svg">
  <rect width="390" height="844" rx="42" fill="#F5F7F6"/>
  <rect x="14" y="14" width="362" height="816" rx="34" fill="#FFFFFF"/>
  <text x="32" y="76" font-family="-apple-system, BlinkMacSystemFont, Segoe UI, sans-serif" font-size="34" font-weight="800" fill="#111827">我的</text>

  <text x="32" y="132" font-family="-apple-system, BlinkMacSystemFont, Segoe UI, sans-serif" font-size="13" font-weight="700" fill="#6B7280">用户目标</text>
  <rect x="32" y="146" width="326" height="154" rx="12" fill="#F3F4F6"/>
  <circle cx="56" cy="180" r="9" fill="#16A34A"/>
  <text x="80" y="186" font-family="-apple-system, BlinkMacSystemFont, Segoe UI, sans-serif" font-size="17" fill="#111827">增肌</text>
  <line x1="80" y1="204" x2="338" y2="204" stroke="#E5E7EB"/>
  <circle cx="56" cy="230" r="9" fill="#16A34A"/>
  <text x="80" y="236" font-family="-apple-system, BlinkMacSystemFont, Segoe UI, sans-serif" font-size="17" fill="#111827">减脂</text>
  <line x1="80" y1="254" x2="338" y2="254" stroke="#E5E7EB"/>
  <circle cx="56" cy="280" r="9" fill="#16A34A"/>
  <text x="80" y="286" font-family="-apple-system, BlinkMacSystemFont, Segoe UI, sans-serif" font-size="17" fill="#111827">提升体能</text>

  <text x="32" y="346" font-family="-apple-system, BlinkMacSystemFont, Segoe UI, sans-serif" font-size="13" font-weight="700" fill="#6B7280">账号</text>
  <rect x="32" y="360" width="326" height="56" rx="12" fill="#F3F4F6"/>
  <text x="52" y="396" font-family="-apple-system, BlinkMacSystemFont, Segoe UI, sans-serif" font-size="16" fill="#6B7280">暂时不需要登录</text>

  <rect x="14" y="744" width="362" height="86" fill="#FFFFFF"/>
  <line x1="14" y1="744" x2="376" y2="744" stroke="#E5E7EB"/>
  <text x="56" y="790" font-family="-apple-system, BlinkMacSystemFont, Segoe UI, sans-serif" font-size="12" fill="#6B7280">首页</text>
  <text x="136" y="790" font-family="-apple-system, BlinkMacSystemFont, Segoe UI, sans-serif" font-size="12" fill="#6B7280">记录</text>
  <text x="216" y="790" font-family="-apple-system, BlinkMacSystemFont, Segoe UI, sans-serif" font-size="12" fill="#6B7280">历史</text>
  <text x="296" y="790" font-family="-apple-system, BlinkMacSystemFont, Segoe UI, sans-serif" font-size="12" font-weight="700" fill="#16A34A">我的</text>
</svg>
